PathFileType	4	(x/y/z)	S09_M20_T02
DataRate	CameraRate	NumFrames	NumMarkers	Units	OrigDataRate	OrigDataStartFrame	OrigNumFrames
240	240	9	51	mm	240	138	551
Frame#	Time	Sternum			R.Acromium			L.Acromium			Top.Head			R.ASIS			L.ASIS			R.PSIS			L.PSIS			R.Great.Tro			L.Great.Tro			R.Iliac.Crest			L.Iliac.Crest			V.Sacral			R.Thigh.Upper.Post			R.Thigh.Lower.Ant			R.Thigh.Lower.Post			R.Thigh.Upper.Ant			R.Knee.Lat			R.Knee.Med			R.Shank.Upper.Post			R.Shank.Lower.Ant			R.Shank.Lower.Post			R.Shank.Upper.Ant			R.Ankle.Lat			R.Ankle.Med			R.Heel.Upper			R.Heel.Med			R.Heel.Lat			R.Toe.Lat			R.Toe.Med			R.Toe.Tip			L.Thigh.Upper.Post			L.Thigh.Lower.Ant			L.Thigh.Lower.Post			L.Thigh.Upper.Ant			L.Knee.Lat			L.Knee.Med			L.Shank.Upper.Post			L.Shank.Lower.Ant			L.Shank.Lower.Post			L.Shank.Upper.Ant			L.Ankle.Lat			L.Ankle.Med			L.Heel.Upper			L.Heel.Med			L.Heel.Lat			L.Toe.Lat			L.Toe.Med			L.Toe.Tip			Cervical.Spine			Back			
		X1	Y1	Z1	X2	Y2	Z2	X3	Y3	Z3	X4	Y4	Z4	X5	Y5	Z5	X6	Y6	Z6	X7	Y7	Z7	X8	Y8	Z8	X9	Y9	Z9	X10	Y10	Z10	X11	Y11	Z11	X12	Y12	Z12	X13	Y13	Z13	X14	Y14	Z14	X15	Y15	Z15	X16	Y16	Z16	X17	Y17	Z17	X18	Y18	Z18	X19	Y19	Z19	X20	Y20	Z20	X21	Y21	Z21	X22	Y22	Z22	X23	Y23	Z23	X24	Y24	Z24	X25	Y25	Z25	X26	Y26	Z26	X27	Y27	Z27	X28	Y28	Z28	X29	Y29	Z29	X30	Y30	Z30	X31	Y31	Z31	X32	Y32	Z32	X33	Y33	Z33	X34	Y34	Z34	X35	Y35	Z35	X36	Y36	Z36	X37	Y37	Z37	X38	Y38	Z38	X39	Y39	Z39	X40	Y40	Z40	X41	Y41	Z41	X42	Y42	Z42	X43	Y43	Z43	X44	Y44	Z44	X45	Y45	Z45	X46	Y46	Z46	X47	Y47	Z47	X48	Y48	Z48	X49	Y49	Z49	X50	Y50	Z50	X51	Y51	Z51	

138	0.57083	-199.55	1169	295.42	-318.27	1421.1	448.25	-316.08	1422.1	138.24	-241.72	1717.8	288.98	-233.37	1012.1	394.37	-254.06	1014.6	146.56	-460.18	1025.7	336.08	-458.81	1036.1	247.31	-300.23	922.15	473.34	-333.88	923.53	87.564	-325.06	1084.4	449.54	-364.91	1108.1	123.88	-478.41	996.09	286.69	-208.61	687.43	456.38	-105.11	623.08	411.99	-178.46	600.43	431.61	-140.72	703.62	437.09	-99.57	544.75	411.65	-101.96	530.06	286.56	-112.09	358.32	421.18	-26.438	325.6	419.25	-86.549	286.27	413.31	-56.458	393.03	428.34	10.538	118.77	405.01	41.597	145.41	324.41	-32.349	74.287	343.55	-4.0232	54.751	316.17	-19.072	45.247	378.32	120.23	101.42	455.09	169.25	141.27	360.32	197.31	171.21	412.11	-426.91	677.2	157.63	-359.63	570.32	158.69	-425.91	588.49	179.89	-362.24	656.1	131.76	-387.26	494.38	174.66	-356.04	509.27	304.6	-468.58	376.71	173.11	-431.38	274.18	191.57	-488.95	303.63	185.41	-411.34	348.79	180.21	-527.47	110.67	222.74	-513.59	103.24	315.52	-606.81	80.543	274.72	-596.16	52.403	305.54	-608.26	54.119	244.77	-435.29	41.705	188.93	-396.59	36.014	297.28	-344.15	46.339	237.24	-391.18	1476.1	300.63	-457.87	1213.1	284.96
139	0.575	-194.95	1168	295.58	-313.39	1420.3	448.42	-310.99	1421.2	138.37	-236.39	1716.9	289.19	-228.21	1011.5	394.29	-249.58	1014.1	146.49	-455.25	1024.9	336.65	-454.1	1035.5	247.88	-294.93	921.24	473.28	-329.86	923.1	87.642	-319.98	1083.6	449.67	-360.67	1107.5	124.09	-473.6	995.41	287.27	-204.11	686.25	456.11	-100.75	621.72	411.66	-174.18	599.23	431.19	-136.17	702.3	436.9	-95.24	543.81	411.18	-97.565	529.22	285.95	-104.64	357.35	420.37	-18.378	326.22	418.53	-77.715	285.79	412.41	-49.674	393.08	427.65	22.764	119.97	403.92	53.414	147.46	323.48	-19.144	74.774	342.31	9.6347	55.878	314.91	-5.2958	45.88	377	132.73	104.82	454.27	181.06	145.91	359.64	208.32	176.34	411.54	-423.76	677.3	158.04	-357.07	570.06	158.69	-423.1	588.54	180.11	-359.3	655.87	131.87	-385.05	494.18	174.68	-353.46	508.89	304.49	-466.94	376.86	173.17	-430.22	274.13	191.56	-487.65	303.87	185.5	-409.84	348.64	180.18	-527.15	111.03	222.87	-513.18	103.57	315.61	-606.56	80.985	274.88	-595.97	52.824	305.68	-608.11	54.579	244.93	-435.23	41.704	188.95	-396.46	35.999	297.25	-344.01	46.122	237.17	-386.17	1475.4	300.74	-453.21	1212.5	285.07
140	0.57917	-190.34	1167.1	295.75	-308.49	1419.5	448.59	-305.9	1420.4	138.51	-231.06	1716	289.42	-223.01	1010.7	394.21	-245.07	1013.5	146.43	-450.28	1024.1	337.24	-449.35	1034.8	248.46	-289.61	920.3	473.22	-325.81	922.67	87.723	-314.86	1082.8	449.82	-356.41	1106.8	124.31	-468.75	994.72	287.86	-199.6	685.06	455.85	-96.378	620.33	411.39	-169.89	598.01	430.78	-131.6	700.96	436.75	-90.883	542.86	410.74	-93.193	528.34	285.38	-97.222	356.41	419.63	-10.405	326.85	417.83	-68.975	285.35	411.56	-42.921	393.12	426.99	34.756	121.21	402.82	64.961	149.52	322.55	-6.2149	75.343	341.1	22.982	57.081	313.66	8.2004	46.597	375.69	144.97	108.19	453.39	192.56	150.48	358.9	219.05	181.38	410.91	-420.6	677.4	158.46	-354.51	569.78	158.69	-420.26	588.6	180.32	-356.36	655.63	131.99	-382.82	493.99	174.69	-350.84	508.5	304.38	-465.28	377.01	173.23	-429.06	274.08	191.55	-486.34	304.12	185.59	-408.31	348.5	180.14	-526.81	111.41	222.99	-512.76	103.91	315.7	-606.3	81.461	275.03	-595.78	53.284	305.83	-607.95	55.069	245.07	-435.16	41.703	188.98	-396.32	35.991	297.21	-343.88	45.904	237.1	-381.16	1474.7	300.87	-448.53	1211.9	285.2
141	0.58333	-185.69	1166.1	295.92	-303.59	1418.7	448.77	-300.8	1419.4	138.66	-225.73	1715.1	289.66	-217.79	1010	394.16	-240.53	1012.9	146.38	-445.27	1023.3	337.82	-444.58	1034.2	249.05	-284.28	919.34	473.17	-321.75	922.24	87.807	-309.72	1082	449.98	-352.13	1106.2	124.55	-463.87	994.03	288.46	-195.07	683.85	455.6	-91.977	618.93	411.15	-165.59	596.77	430.38	-127	699.6	436.63	-86.488	541.91	410.33	-88.839	527.44	284.83	-89.847	355.51	418.95	-2.5169	327.47	417.13	-60.333	284.95	410.76	-36.197	393.16	426.35	46.502	122.46	401.73	76.228	151.57	321.6	6.4186	75.977	339.91	35.999	58.341	312.42	21.396	47.382	374.41	156.93	111.51	452.45	203.75	154.96	358.09	229.51	186.3	410.19	-417.43	677.49	158.88	-351.92	569.5	158.68	-417.38	588.65	180.54	-353.4	655.39	132.1	-380.57	493.79	174.69	-348.17	508.09	304.26	-463.59	377.17	173.28	-427.87	274.05	191.53	-485	304.38	185.67	-406.77	348.36	180.1	-526.45	111.81	223.1	-512.33	104.28	315.77	-606.03	81.971	275.17	-595.58	53.782	305.96	-607.79	55.589	245.21	-435.09	41.703	188.99	-396.19	35.989	297.16	-343.73	45.684	237.02	-376.14	1473.9	301	-443.83	1211.2	285.33
142	0.5875	-181.02	1165.1	296.09	-298.68	1417.8	448.96	-295.7	1418.5	138.81	-220.39	1714.2	289.91	-212.54	1009.3	394.11	-235.97	1012.3	146.35	-440.22	1022.5	338.41	-439.77	1033.5	249.65	-278.94	918.36	473.12	-317.67	921.79	87.895	-304.54	1081.1	450.16	-347.82	1105.6	124.8	-458.97	993.33	289.06	-190.51	682.65	455.35	-87.542	617.52	410.95	-161.26	595.54	429.99	-122.36	698.24	436.56	-82.045	540.96	409.94	-84.494	526.52	284.33	-82.509	354.65	418.33	5.2851	328.08	416.43	-51.793	284.6	410.02	-29.498	393.2	425.72	57.988	123.72	400.64	87.202	153.61	320.64	18.739	76.66	338.74	48.667	59.636	311.2	34.273	48.219	373.15	168.6	114.75	451.46	214.62	159.32	357.22	239.68	191.07	409.38	-414.24	677.57	159.3	-349.33	569.21	158.66	-414.46	588.69	180.75	-350.43	655.13	132.21	-378.3	493.59	174.69	-345.45	507.66	304.13	-461.88	377.34	173.32	-426.67	274.01	191.5	-483.64	304.65	185.74	-405.2	348.22	180.05	-526.08	112.22	223.2	-511.89	104.65	315.84	-605.74	82.516	275.29	-595.37	54.32	306.09	-607.61	56.141	245.34	-435.01	41.704	189.01	-396.05	35.991	297.12	-343.59	45.463	236.95	-371.12	1473.2	301.14	-439.1	1210.5	285.48
143	0.59167	-176.31	1164.1	296.27	-293.76	1416.9	449.16	-290.59	1417.6	138.98	-215.05	1713.2	290.18	-207.27	1008.5	394.08	-231.37	1011.7	146.33	-435.14	1021.7	338.99	-434.93	1032.9	250.25	-273.57	917.36	473.08	-313.56	921.34	87.988	-299.34	1080.3	450.36	-343.48	1104.9	125.06	-454.03	992.63	289.67	-185.93	681.44	455.12	-83.064	616.11	410.79	-156.9	594.31	429.62	-117.69	696.88	436.51	-77.543	540.03	409.58	-80.151	525.57	283.85	-75.211	353.84	417.78	13.001	328.68	415.74	-43.359	284.29	409.33	-22.82	393.22	425.12	69.2	124.98	399.55	97.872	155.61	319.68	30.727	77.374	337.62	60.967	60.944	310	46.81	49.089	371.92	179.97	117.9	450.42	225.17	163.54	356.27	249.58	195.67	408.49	-411.04	677.64	159.73	-346.71	568.92	158.64	-411.5	588.72	180.96	-347.44	654.87	132.31	-376	493.38	174.69	-342.67	507.2	303.99	-460.13	377.51	173.36	-425.44	273.99	191.46	-482.26	304.92	185.81	-403.6	348.09	179.99	-525.7	112.65	223.29	-511.44	105.05	315.9	-605.44	83.098	275.4	-595.15	54.897	306.2	-607.43	56.724	245.46	-434.93	41.706	189.02	-395.91	36	297.07	-343.45	45.243	236.87	-366.09	1472.4	301.29	-434.34	1209.8	285.64
144	0.59583	-171.57	1163.1	296.45	-288.83	1416.1	449.37	-285.47	1416.7	139.15	-209.71	1712.3	290.46	-201.97	1007.7	394.06	-226.75	1011.1	146.32	-430.02	1020.9	339.57	-430.06	1032.2	250.86	-268.19	916.35	473.05	-309.43	920.89	88.087	-294.11	1079.4	450.56	-339.11	1104.3	125.34	-449.07	991.92	290.28	-181.3	680.25	454.9	-78.536	614.72	410.65	-152.49	593.08	429.26	-112.98	695.53	436.49	-72.973	539.11	409.25	-75.799	524.62	283.41	-67.955	353.07	417.3	20.631	329.26	415.06	-35.037	284.02	408.7	-16.162	393.25	424.53	80.127	126.21	398.48	108.23	157.54	318.71	42.367	78.099	336.53	72.882	62.242	308.84	58.99	49.972	370.73	191.04	120.93	449.32	235.4	167.59	355.25	259.19	200.07	407.51	-407.81	677.71	160.16	-344.06	568.61	158.62	-408.5	588.74	181.17	-344.43	654.6	132.41	-373.67	493.17	174.68	-339.83	506.73	303.84	-458.35	377.69	173.4	-424.2	273.97	191.41	-480.85	305.21	185.88	-401.97	347.96	179.93	-525.29	113.1	223.36	-510.98	105.46	315.95	-605.13	83.715	275.5	-594.93	55.514	306.31	-607.24	57.341	245.58	-434.85	41.709	189.03	-395.76	36.013	297.02	-343.3	45.022	236.79	-361.06	1471.7	301.45	-429.56	1209.1	285.8
145	0.6	-166.8	1162.1	296.63	-283.9	1415.2	449.59	-280.36	1415.7	139.33	-204.37	1711.3	290.74	-196.65	1006.9	394.05	-222.11	1010.4	146.32	-424.87	1020	340.15	-425.15	1031.5	251.47	-262.79	915.33	473.03	-305.28	920.42	88.193	-288.85	1078.5	450.78	-334.7	1103.6	125.64	-444.08	991.22	290.9	-176.62	679.06	454.7	-73.948	613.35	410.54	-148.01	591.88	428.91	-108.21	694.2	436.5	-68.327	538.22	408.93	-71.43	523.66	283	-60.743	352.36	416.87	28.172	329.8	414.37	-26.833	283.77	408.13	-9.5233	393.26	423.95	90.753	127.41	397.42	118.26	159.38	317.74	53.642	78.815	335.49	84.396	63.505	307.71	70.795	50.851	369.58	201.8	123.83	448.16	245.29	171.44	354.16	268.52	204.25	406.44	-404.57	677.76	160.58	-341.39	568.29	158.59	-405.46	588.75	181.38	-341.4	654.31	132.51	-371.31	492.95	174.67	-336.95	506.23	303.69	-456.54	377.87	173.43	-422.93	273.95	191.37	-479.42	305.51	185.94	-400.32	347.82	179.86	-524.88	113.58	223.43	-510.51	105.89	315.99	-604.81	84.37	275.58	-594.69	56.17	306.41	-607.04	57.991	245.68	-434.77	41.714	189.03	-395.62	36.032	296.96	-343.15	44.803	236.71	-356.01	1470.9	301.62	-424.74	1208.3	285.98
146	0.60417	-161.99	1161.1	296.81	-278.95	1414.3	449.82	-275.23	1414.8	139.52	-199.03	1710.3	291.04	-191.32	1006.1	394.04	-217.43	1009.8	146.33	-419.68	1019.2	340.71	-420.22	1030.9	252.07	-257.38	914.31	473.02	-301.1	919.93	88.304	-283.55	1077.6	451	-330.24	1103	125.94	-439.06	990.51	291.52	-171.89	677.9	454.51	-69.294	612.01	410.44	-143.47	590.7	428.58	-103.38	692.89	436.52	-63.594	537.35	408.62	-67.033	522.7	282.62	-53.577	351.69	416.5	35.624	330.31	413.7	-18.753	283.56	407.61	-2.9018	393.27	423.39	101.06	128.55	396.38	127.96	161.13	316.77	64.537	79.502	334.49	95.495	64.71	306.62	82.208	51.704	368.48	212.23	126.57	446.96	254.85	175.07	353	277.57	208.19	405.27	-401.3	677.79	161	-338.69	567.95	158.57	-402.38	588.75	181.59	-338.34	654.01	132.6	-368.91	492.72	174.67	-334.01	505.7	303.53	-454.69	378.06	173.46	-421.63	273.94	191.31	-477.95	305.82	186	-398.63	347.69	179.79	-524.45	114.07	223.49	-510.03	106.34	316.02	-604.47	85.062	275.65	-594.45	56.865	306.5	-606.83	58.675	245.77	-434.68	41.721	189.04	-395.47	36.056	296.91	-343	44.585	236.63	-350.97	1470.1	301.8	-419.89	1207.5	286.17
